<svg xmlns="http://www.w3.org/2000/svg" width="294.27" height="157.21" viewBox="0 0 294.27 157.21"><defs><style>.cls-1{fill:#fff;}</style></defs><title>Asset 2</title><g id="Layer_2" data-name="Layer 2"><g id="Layer_1-2" data-name="Layer 1"><path class="cls-1" d="M105.61,79.19c-4.66,1-4.51,5.19-3.52,9.86s2.57,8.62,7.23,7.63,4.45-5.23,3.45-9.9S110.26,78.2,105.61,79.19Z"/><path class="cls-1" d="M76.52,86.05a2.72,2.72,0,0,0-2,2.7l.38,9.91a1.81,1.81,0,0,0,2.23,1.79,2.74,2.74,0,0,0,2-2.7l-.39-9.91A1.8,1.8,0,0,0,76.52,86.05Z"/><path class="cls-1" d="M69.08,83a2.72,2.72,0,0,0-2,2.69l.74,19A1.8,1.8,0,0,0,70,106.51,2.71,2.71,0,0,0,72,103.82l-.74-19A1.8,1.8,0,0,0,69.08,83Z"/><path class="cls-1" d="M137.07,83.24l-6,1.28c-3,.65-4.31,2.38-3.8,4.77s2.26,3.42,5.5,2.73c2-.42,3.41-.88,4.49-2.52.6-.94.69-2.26.29-4.13Z"/><path class="cls-1" d="M195.25,78.74c2-.42,3.41-.89,4.49-2.53.59-.94.68-2.26.28-4.13L199.57,70l-6,1.28c-3,.64-4.31,2.38-3.81,4.76S192,79.43,195.25,78.74Z"/><path class="cls-1" d="M172,66.66a5.28,5.28,0,0,0-4.11-.7,5.15,5.15,0,0,0-3.43,2.3c-1.23,1.94-.85,4.74-.24,7.59s1.39,5.56,3.31,6.84a5.2,5.2,0,0,0,4.07.75A5.31,5.31,0,0,0,175,81.08c1.23-1.94.85-4.74.24-7.59S173.89,67.93,172,66.66Z"/><path class="cls-1" d="M40.66,105.2a2.7,2.7,0,0,0-2,2.69l.11,2.83a1.8,1.8,0,0,0,2.22,1.79,2.72,2.72,0,0,0,2.05-2.7L42.88,107A1.79,1.79,0,0,0,40.66,105.2Z"/><path class="cls-1" d="M246.33,65.93a5.22,5.22,0,0,0,4.08.76,5.38,5.38,0,0,0,3.47-2.37c1.22-1.94.84-4.73.24-7.58s-1.4-5.56-3.31-6.84a5.3,5.3,0,0,0-4.12-.7,5.16,5.16,0,0,0-3.42,2.3c-1.23,2-.85,4.74-.24,7.59S244.42,64.65,246.33,65.93Z"/><path class="cls-1" d="M47.92,103.65a2.72,2.72,0,0,0-2.05,2.7l.38,9.91a1.81,1.81,0,0,0,2.23,1.79,2.71,2.71,0,0,0,2-2.69l-.38-9.92A1.8,1.8,0,0,0,47.92,103.65Z"/><path class="cls-1" d="M61.92,87a2.72,2.72,0,0,0-2.05,2.69l1,25.62a1.79,1.79,0,0,0,2.22,1.78,2.71,2.71,0,0,0,2-2.69l-1-25.62A1.81,1.81,0,0,0,61.92,87Z"/><path class="cls-1" d="M55,97.59a2.73,2.73,0,0,0-2,2.69l.74,19a1.81,1.81,0,0,0,2.23,1.79,2.72,2.72,0,0,0,2-2.69l-.73-19A1.8,1.8,0,0,0,55,97.59Z"/><path class="cls-1" d="M232.72,87.3h0a3.12,3.12,0,0,0-2.1,1.34,3.09,3.09,0,0,0-.33,2.39h0A2.91,2.91,0,0,0,234,93.44a3.14,3.14,0,1,0-1.3-6.14Z"/><path class="cls-1" d="M273.2,0,0,58.07l21.07,99.14,273.2-58.07ZM238.7,49.22a10.4,10.4,0,0,1,7-4.74A10.51,10.51,0,0,1,254.05,46c3,2.08,4.29,5.27,5.23,9.68s1.05,7.91-.83,11a10.52,10.52,0,0,1-7,4.75,10.39,10.39,0,0,1-8.31-1.49c-3-2.08-4.29-5.27-5.24-9.73S236.83,52.33,238.7,49.22Zm-31.27-8.77a3.31,3.31,0,0,1,2.88.77l6.24,29.36c.43,2,1.36,2.91,3.43,2.47l2.28-.49,1,4.52-3.19.67c-4.91,1-7.75-1.87-8.58-5.76l-6.31-29.67A3.27,3.27,0,0,1,207.43,40.45Zm-125.78,78-33.76,7.17a7.88,7.88,0,0,1-9.31-6.12L31.33,85.35a7.88,7.88,0,0,1,6-9.38L71.11,68.8a7.86,7.86,0,0,1,9.3,6.11l3.53,16.61a2.73,2.73,0,0,0-2,2.67L82.1,97a1.79,1.79,0,0,0,2.22,1.78,2.33,2.33,0,0,0,1.06-.54L87.67,109A7.88,7.88,0,0,1,81.65,118.42Zm35.77-21a8.8,8.8,0,0,1-5.73,3.66,8.09,8.09,0,0,1-7.37-1.58l2.83,13.33L102,114,94.4,78.27a3.18,3.18,0,0,1,2.25-1.83,3.29,3.29,0,0,1,2.82.75l.33,1.56a8,8,0,0,1,6.12-4.56,8.94,8.94,0,0,1,6.77,1c3.15,2.1,4.4,6.5,5.25,10.49S119.45,94.25,117.42,97.45Zm22.22-2.61-.51-2.39c-1.46,2.32-3.07,3.48-6.26,4.16s-5.48.35-7.39-.93a8.32,8.32,0,0,1-3.23-5.22c-.94-4.41,1.38-8.21,7.25-9.46l6.79-1.44-.4-1.87c-.71-3.32-2.67-4.58-6.67-3.73-2.84.6-4.06,1.56-5.08,3.73l-4.09-2.54c1.82-3.43,4.16-4.85,8.42-5.75,7-1.5,11.23.81,12.5,6.78l3.73,17.58Zm17.19-3.65c-4.92,1-7.76-1.88-8.58-5.77l-6.31-29.67a3.27,3.27,0,0,1,2.29-1.87,3.32,3.32,0,0,1,2.87.77L153.34,84c.43,2,1.36,2.91,3.44,2.47l2.28-.48,1,4.51Zm22.78-7.77a10.49,10.49,0,0,1-7,4.74,10.34,10.34,0,0,1-8.31-1.48c-3-2.08-4.3-5.27-5.25-9.73s-1-7.86.85-11a10.37,10.37,0,0,1,7-4.74,10.49,10.49,0,0,1,8.36,1.48c3,2.07,4.3,5.26,5.23,9.68S181.49,80.3,179.61,83.42Zm5.14-6.25c-.93-4.41,1.38-8.21,7.25-9.45l6.79-1.45-.4-1.87c-.7-3.32-2.67-4.58-6.66-3.73-2.84.6-4.06,1.57-5.09,3.74l-4.08-2.55c1.81-3.42,4.15-4.84,8.41-5.75,7-1.49,11.23.82,12.5,6.78l3.74,17.59-5.07,1.08-.5-2.39c-1.47,2.32-3.08,3.47-6.27,4.15s-5.48.35-7.39-.92A8.46,8.46,0,0,1,184.75,77.17Zm11.6,25.45-6.22-5.18,1.31,6.22L190,104l-1.79-8.41,1.58-.33,6.22,5.18c-.14-.68-1.32-6.22-1.32-6.22l1.46-.31,1.79,8.4Zm3.54-.75-1.79-8.41,6.65-1.41.29,1.33-5.2,1.11.44,2.06,5-1.07.28,1.34-5,1.07.49,2.33,5.31-1.12.28,1.33Zm12.54-2.66-1.46.31-1.5-7.08-3,.64-.28-1.34,7.45-1.58.28,1.34-3,.63Zm14.06-3-1.49.32-3.47-6c-.08.72-.73,6.9-.73,6.9l-1.5.32-4.49-7.84,1.58-.33,3.28,5.89c.07-.74.68-6.73.68-6.73L222,88.4s3,5.23,3.42,5.86c.06-.73.59-6.71.59-6.71l1.52-.32Zm-.6-27.36-3.08-14.47-2.93.62L219,51l2.93-.63-1.69-8a3.25,3.25,0,0,1,5.16-1.1l1.7,8,5-1.05.86,4.05-5,1,3,14.22c.41,1.91,1.56,2.86,3.48,2.45l2.13-.45,1,4.52-3.09.65C229.67,75.71,226.69,72.65,225.89,68.86Zm8.41,25.92a4.28,4.28,0,0,1-5.48-3.45A4.29,4.29,0,0,1,232.43,86a4.51,4.51,0,1,1,1.87,8.82ZM246.53,92l-.05,0c-.25-.2-.34-.51-.55-1.32l-.08-.26c-.39-1.45-.94-1.64-1.76-1.46l-2.93.62c.06.26.73,3.45.73,3.45l-1.46.3-1.78-8.4,5-1.07a2.22,2.22,0,0,1,2.79,1.81,2.14,2.14,0,0,1-.73,2.24,1.9,1.9,0,0,1,1.35,1.55c.37,1.44.49,1.8.79,2l.25.2Zm9.27-2-4-3.21-1,1.43c0,.13.58,2.74.58,2.74l-1.46.3-1.78-8.4,1.46-.31.83,3.9,3.4-4.8,2.09-.44s-3,4.13-3.19,4.36l5.12,4Zm9.35-2.77a4.19,4.19,0,0,1-2.65,1.57,4.38,4.38,0,0,1-3.26-.36,2.85,2.85,0,0,1-1.16-1.86l0-.15,1.45-.31,0,.15c.34,1.46,1.88,1.36,2.77,1.17a2.45,2.45,0,0,0,1.61-.89,1,1,0,0,0,.13-.76c-.12-.59-.58-.81-1.58-.78l-1.86.08c-.64,0-2.56.1-3-1.75-.34-1.61.72-2.88,2.77-3.31s3.62.25,4.08,1.94l0,.15-1.45.3,0-.11c-.22-.58-.72-1.3-2.51-.92a2.12,2.12,0,0,0-1.32.79,1,1,0,0,0-.13.76c.07.31.28.72,1.38.68l2-.07c.63,0,2.58-.08,2.95,1.69A2.59,2.59,0,0,1,265.15,87.23Zm4.64-3.67a2.6,2.6,0,1,1,1.94-3.07A2.56,2.56,0,0,1,269.79,83.56Z"/><path class="cls-1" d="M243.56,85.21l-3.17.67c.05.25.44,2.05.49,2.29l3.14-.66c1.12-.24,1.14-1,1-1.42A1.12,1.12,0,0,0,243.56,85.21Z"/><path class="cls-1" d="M269.72,80.33a.5.5,0,0,0-.62-.39l-.51.11.21,1,.51-.11A.49.49,0,0,0,269.72,80.33Z"/><path class="cls-1" d="M268.79,78.84a2.22,2.22,0,0,0,.92,4.34,2.22,2.22,0,0,0-.92-4.34Zm1.36,3.44-.87-1-.41.09.24,1.14-.37.08-.6-2.79.93-.2a.86.86,0,0,1,1,.65.77.77,0,0,1-.42.89l.91,1.05Z"/></g></g></svg>